<svg xmlns="http://www.w3.org/2000/svg" width="44" height="44">
    <symbol id="idIco" viewBox="0 0 44 44">
        <path fill-rule="evenodd" clip-rule="evenodd" fill="currentColor" d="M0 21.1205C0 11.1639 0 6.18653 3.02274 3.09312C6.04577 0 10.9099 0 20.64 0H22.36C32.0901 0 36.9542 0 39.9773 3.09312C43 6.18653 43 11.1639 43 21.1205V22.8806C43 32.8358 43 37.8146 39.9773 40.908C36.9542 44 32.0901 44 22.36 44H20.64C10.9099 44 6.04577 44 3.02274 40.908C0 37.8146 0 32.8358 0 22.8806L0 21.1205ZM21.4999 28.4406C21.4999 28.2869 21.5579 28.4606 21.6821 28.8347C22.3541 30.8608 24.9781 38.7678 30.9786 32.4466C34.1383 29.1184 32.6755 25.7905 26.9243 24.7855C30.2144 25.3602 33.9134 24.4105 34.9283 20.6868C35.2206 19.6155 35.7183 13.0173 35.7183 12.1261C35.7183 7.6623 31.907 9.06539 29.5543 10.8782C26.2941 13.3911 22.7873 18.4857 21.4999 21.2196C20.2127 18.4857 16.7059 13.3911 13.4457 10.8782C11.0936 9.06539 7.28169 7.6623 7.28169 12.1261C7.28169 13.0173 7.77939 19.6155 8.07168 20.6868C9.08662 24.4105 12.7856 25.3602 16.0757 24.7855C10.3242 25.7905 8.86167 29.1184 12.0214 32.4466C18.0219 38.7678 20.6459 30.8608 21.3179 28.8347C21.4421 28.4606 21.4999 28.2869 21.4999 28.4406Z"/>
    </symbol>
</svg>